<svg width="604" height="726" viewBox="0 0 604 726" fill="none" xmlns="http://www.w3.org/2000/svg">
  <style>
    /* Default to Black for Light Mode */
    path { stroke: black; }
    /* Switch to White for Dark Mode Browsers */
    @media (prefers-color-scheme: dark) {
      path { stroke: #ffffff; }
    }
  </style>
  <path d="M61.0964 390.845C-33.0359 152.236 37.348 98.6127 243.597 31.3452C449.845 -35.9223 592.513 214.005 393.597 307.845C587.597 259.345 694.097 583.345 406.097 689.845C212.533 739.938 70.9877 668.127 110.597 493.845C127.208 420.756 166.097 392.845 210.097 333.845C269.2 267.351 303.474 229.957 300.597 189.345C297.02 138.858 240.258 132.588 230.597 180.845C198.076 343.283 243.096 564.345 302.097 569.845C348.597 577.845 404.226 536.284 380.597 434.845C353.379 364.523 302.597 346.845 243.597 417.845" stroke-width="40" stroke-linecap="round" stroke-linejoin="round"/>
</svg>